<svg id="SvgjsSvg1617" width="317" height="65" xmlns="http://www.w3.org/2000/svg" version="1.1" xmlns:xlink="http://www.w3.org/1999/xlink" xmlns:svgjs="http://svgjs.com/svgjs" class="apexcharts-svg" xmlns:data="ApexChartsNS" transform="translate(0, 0)" style="background: transparent;"><g id="SvgjsG1619" class="apexcharts-inner apexcharts-graphical" transform="translate(0, 0)"><defs id="SvgjsDefs1618"><clipPath id="gridRectMaskcryx9vx6"><rect id="SvgjsRect1623" width="319" height="67" x="-1" y="-1" rx="0" ry="0" fill="#ffffff" opacity="1" stroke-width="0" stroke="none" stroke-dasharray="0"></rect></clipPath><clipPath id="gridRectMarkerMaskcryx9vx6"><rect id="SvgjsRect1624" width="319" height="67" x="-1" y="-1" rx="0" ry="0" fill="#ffffff" opacity="1" stroke-width="0" stroke="none" stroke-dasharray="0"></rect></clipPath><linearGradient id="SvgjsLinearGradient1630" x1="0" y1="0" x2="0" y2="1"><stop id="SvgjsStop1631" stop-opacity="0.65" stop-color="rgba(26,188,156,0.65)" offset="0"></stop><stop id="SvgjsStop1632" stop-opacity="0.5" stop-color="rgba(141,222,206,0.5)" offset="1"></stop><stop id="SvgjsStop1633" stop-opacity="0.5" stop-color="rgba(141,222,206,0.5)" offset="1"></stop></linearGradient></defs><line id="SvgjsLine1622" x1="0" y1="0" x2="0" y2="65" stroke="#b6b6b6" stroke-dasharray="3" class="apexcharts-xcrosshairs" x="0" y="0" width="1" height="65" fill="#b1b9c4" filter="none" fill-opacity="0.9" stroke-width="1"></line><g id="SvgjsG1636" class="apexcharts-xaxis" transform="translate(0, 0)"><g id="SvgjsG1637" class="apexcharts-xaxis-texts-g" transform="translate(0, -4)"></g></g><g id="SvgjsG1640" class="apexcharts-grid"><line id="SvgjsLine1642" x1="0" y1="65" x2="317" y2="65" stroke="transparent" stroke-dasharray="0"></line><line id="SvgjsLine1641" x1="0" y1="1" x2="0" y2="65" stroke="transparent" stroke-dasharray="0"></line></g><g id="SvgjsG1626" class="apexcharts-area-series apexcharts-plot-series"><g id="SvgjsG1627" class="apexcharts-series" seriesName="seriesx1" data:longestSeries="true" rel="1" data:realIndex="0"><path id="apexcharts-area-0" d="M 0 65L 0 65C 13.868749999999999 65 25.75625 43.333333333333336 39.625 43.333333333333336C 53.49375 43.333333333333336 65.38125 54.16666666666667 79.25 54.16666666666667C 93.11875 54.16666666666667 105.00625 16.25 118.875 16.25C 132.74375 16.25 144.63125 32.5 158.5 32.5C 172.36875 32.5 184.25625 5.416666666666671 198.125 5.416666666666671C 211.99375 5.416666666666671 223.88125 43.333333333333336 237.75 43.333333333333336C 251.61875 43.333333333333336 263.50625 32.5 277.375 32.5C 291.24375 32.5 303.13125 65 317 65C 317 65 317 65 317 65M 317 65z" fill="url(#SvgjsLinearGradient1630)" fill-opacity="1" stroke-opacity="1" stroke-linecap="butt" stroke-width="0" stroke-dasharray="0" class="apexcharts-area" index="0" clip-path="url(#gridRectMaskcryx9vx6)" pathTo="M 0 65L 0 65C 13.868749999999999 65 25.75625 43.333333333333336 39.625 43.333333333333336C 53.49375 43.333333333333336 65.38125 54.16666666666667 79.25 54.16666666666667C 93.11875 54.16666666666667 105.00625 16.25 118.875 16.25C 132.74375 16.25 144.63125 32.5 158.5 32.5C 172.36875 32.5 184.25625 5.416666666666671 198.125 5.416666666666671C 211.99375 5.416666666666671 223.88125 43.333333333333336 237.75 43.333333333333336C 251.61875 43.333333333333336 263.50625 32.5 277.375 32.5C 291.24375 32.5 303.13125 65 317 65C 317 65 317 65 317 65M 317 65z" pathFrom="M -1 65L -1 65L 39.625 65L 79.25 65L 118.875 65L 158.5 65L 198.125 65L 237.75 65L 277.375 65L 317 65"></path><path id="apexcharts-area-0" d="M 0 65C 13.868749999999999 65 25.75625 43.333333333333336 39.625 43.333333333333336C 53.49375 43.333333333333336 65.38125 54.16666666666667 79.25 54.16666666666667C 93.11875 54.16666666666667 105.00625 16.25 118.875 16.25C 132.74375 16.25 144.63125 32.5 158.5 32.5C 172.36875 32.5 184.25625 5.416666666666671 198.125 5.416666666666671C 211.99375 5.416666666666671 223.88125 43.333333333333336 237.75 43.333333333333336C 251.61875 43.333333333333336 263.50625 32.5 277.375 32.5C 291.24375 32.5 303.13125 65 317 65" fill="none" fill-opacity="1" stroke="#1abc9c" stroke-opacity="1" stroke-linecap="butt" stroke-width="2" stroke-dasharray="0" class="apexcharts-area" index="0" clip-path="url(#gridRectMaskcryx9vx6)" pathTo="M 0 65C 13.868749999999999 65 25.75625 43.333333333333336 39.625 43.333333333333336C 53.49375 43.333333333333336 65.38125 54.16666666666667 79.25 54.16666666666667C 93.11875 54.16666666666667 105.00625 16.25 118.875 16.25C 132.74375 16.25 144.63125 32.5 158.5 32.5C 172.36875 32.5 184.25625 5.416666666666671 198.125 5.416666666666671C 211.99375 5.416666666666671 223.88125 43.333333333333336 237.75 43.333333333333336C 251.61875 43.333333333333336 263.50625 32.5 277.375 32.5C 291.24375 32.5 303.13125 65 317 65" pathFrom="M -1 65L -1 65L 39.625 65L 79.25 65L 118.875 65L 158.5 65L 198.125 65L 237.75 65L 277.375 65L 317 65"></path><g id="SvgjsG1628" class="apexcharts-series-markers-wrap"><g class="apexcharts-series-markers"><circle id="SvgjsCircle1648" r="0" cx="0" cy="0" class="apexcharts-marker w2n13mkspf no-pointer-events" stroke="#ffffff" fill="#1abc9c" fill-opacity="1" stroke-width="2" stroke-opacity="0.9" default-marker-size="0"></circle></g></g><g id="SvgjsG1629" class="apexcharts-datalabels"></g></g></g><line id="SvgjsLine1643" x1="0" y1="0" x2="317" y2="0" stroke="#b6b6b6" stroke-dasharray="0" stroke-width="1" class="apexcharts-ycrosshairs"></line><line id="SvgjsLine1644" x1="0" y1="0" x2="317" y2="0" stroke-dasharray="0" stroke-width="0" class="apexcharts-ycrosshairs-hidden"></line><g id="SvgjsG1645" class="apexcharts-yaxis-annotations"></g><g id="SvgjsG1646" class="apexcharts-xaxis-annotations"></g><g id="SvgjsG1647" class="apexcharts-point-annotations"></g></g><rect id="SvgjsRect1621" width="0" height="0" x="0" y="0" rx="0" ry="0" fill="#fefefe" opacity="1" stroke-width="0" stroke="none" stroke-dasharray="0"></rect><g id="SvgjsG1638" class="apexcharts-yaxis" rel="0" transform="translate(-21, 0)"><g id="SvgjsG1639" class="apexcharts-yaxis-texts-g"></g></g></svg>